<mxfile host="app.diagrams.net" modified="2023-09-07T00:05:36.025Z" agent="Mozilla/5.0 (X11; Linux x86_64) AppleWebKit/537.36 (KHTML, like Gecko) Chrome/116.0.0.0 Safari/537.36" etag="_H1prWUmMYNRd_EjZozp" version="21.7.2" type="device">
  <diagram name="PÃ¡gina-1" id="ZCnwLFxzT6pkAZWE6a34">
    <mxGraphModel dx="1050" dy="579" grid="1" gridSize="10" guides="1" tooltips="1" connect="1" arrows="1" fold="1" page="1" pageScale="1" pageWidth="827" pageHeight="1169" math="0" shadow="0">
      <root>
        <mxCell id="0" />
        <mxCell id="1" parent="0" />
        <mxCell id="TtXICu0RF0kHqPmgF_Y--46" style="edgeStyle=orthogonalEdgeStyle;rounded=0;orthogonalLoop=1;jettySize=auto;html=1;exitX=0.5;exitY=0;exitDx=0;exitDy=0;entryX=1;entryY=0.5;entryDx=0;entryDy=0;" edge="1" parent="1" source="TtXICu0RF0kHqPmgF_Y--1" target="TtXICu0RF0kHqPmgF_Y--20">
          <mxGeometry relative="1" as="geometry" />
        </mxCell>
        <mxCell id="TtXICu0RF0kHqPmgF_Y--1" value="Aeropuerto" style="swimlane;fontStyle=1;align=center;verticalAlign=top;childLayout=stackLayout;horizontal=1;startSize=26;horizontalStack=0;resizeParent=1;resizeParentMax=0;resizeLast=0;collapsible=1;marginBottom=0;whiteSpace=wrap;html=1;" vertex="1" parent="1">
          <mxGeometry x="329" y="400" width="170" height="108" as="geometry" />
        </mxCell>
        <mxCell id="TtXICu0RF0kHqPmgF_Y--2" value="- codigo: String&lt;br&gt;- latitud: int&lt;br&gt;- longitud: int&lt;br&gt;- aerolineas: List&amp;lt;Aerolineas&amp;gt;" style="text;strokeColor=none;fillColor=none;align=left;verticalAlign=top;spacingLeft=4;spacingRight=4;overflow=hidden;rotatable=0;points=[[0,0.5],[1,0.5]];portConstraint=eastwest;whiteSpace=wrap;html=1;" vertex="1" parent="TtXICu0RF0kHqPmgF_Y--1">
          <mxGeometry y="26" width="170" height="74" as="geometry" />
        </mxCell>
        <mxCell id="TtXICu0RF0kHqPmgF_Y--3" value="" style="line;strokeWidth=1;fillColor=none;align=left;verticalAlign=middle;spacingTop=-1;spacingLeft=3;spacingRight=3;rotatable=0;labelPosition=right;points=[];portConstraint=eastwest;strokeColor=inherit;" vertex="1" parent="TtXICu0RF0kHqPmgF_Y--1">
          <mxGeometry y="100" width="170" height="8" as="geometry" />
        </mxCell>
        <mxCell id="TtXICu0RF0kHqPmgF_Y--47" style="edgeStyle=orthogonalEdgeStyle;rounded=0;orthogonalLoop=1;jettySize=auto;html=1;exitX=0.5;exitY=0;exitDx=0;exitDy=0;entryX=0.007;entryY=0.472;entryDx=0;entryDy=0;entryPerimeter=0;" edge="1" parent="1" source="TtXICu0RF0kHqPmgF_Y--5" target="TtXICu0RF0kHqPmgF_Y--20">
          <mxGeometry relative="1" as="geometry" />
        </mxCell>
        <mxCell id="TtXICu0RF0kHqPmgF_Y--5" value="Aerolinea&lt;br&gt;" style="swimlane;fontStyle=1;align=center;verticalAlign=top;childLayout=stackLayout;horizontal=1;startSize=26;horizontalStack=0;resizeParent=1;resizeParentMax=0;resizeLast=0;collapsible=1;marginBottom=0;whiteSpace=wrap;html=1;" vertex="1" parent="1">
          <mxGeometry x="50" y="400" width="160" height="78" as="geometry" />
        </mxCell>
        <mxCell id="TtXICu0RF0kHqPmgF_Y--6" value="- vuelos: List&amp;lt;Vuelo&amp;gt;&lt;br&gt;- codigoA: String" style="text;strokeColor=none;fillColor=none;align=left;verticalAlign=top;spacingLeft=4;spacingRight=4;overflow=hidden;rotatable=0;points=[[0,0.5],[1,0.5]];portConstraint=eastwest;whiteSpace=wrap;html=1;" vertex="1" parent="TtXICu0RF0kHqPmgF_Y--5">
          <mxGeometry y="26" width="160" height="44" as="geometry" />
        </mxCell>
        <mxCell id="TtXICu0RF0kHqPmgF_Y--7" value="" style="line;strokeWidth=1;fillColor=none;align=left;verticalAlign=middle;spacingTop=-1;spacingLeft=3;spacingRight=3;rotatable=0;labelPosition=right;points=[];portConstraint=eastwest;strokeColor=inherit;" vertex="1" parent="TtXICu0RF0kHqPmgF_Y--5">
          <mxGeometry y="70" width="160" height="8" as="geometry" />
        </mxCell>
        <mxCell id="TtXICu0RF0kHqPmgF_Y--44" style="edgeStyle=orthogonalEdgeStyle;rounded=0;orthogonalLoop=1;jettySize=auto;html=1;exitX=0.5;exitY=0;exitDx=0;exitDy=0;entryX=0.5;entryY=1;entryDx=0;entryDy=0;" edge="1" parent="1" source="TtXICu0RF0kHqPmgF_Y--9" target="TtXICu0RF0kHqPmgF_Y--5">
          <mxGeometry relative="1" as="geometry" />
        </mxCell>
        <mxCell id="TtXICu0RF0kHqPmgF_Y--9" value="Vuelo&lt;br&gt;" style="swimlane;fontStyle=1;align=center;verticalAlign=top;childLayout=stackLayout;horizontal=1;startSize=26;horizontalStack=0;resizeParent=1;resizeParentMax=0;resizeLast=0;collapsible=1;marginBottom=0;whiteSpace=wrap;html=1;" vertex="1" parent="1">
          <mxGeometry x="50" y="530" width="160" height="274" as="geometry" />
        </mxCell>
        <mxCell id="TtXICu0RF0kHqPmgF_Y--10" value="- codigoV: String&lt;br&gt;- origen: String&lt;br&gt;- destino: String&lt;br&gt;- fechaO:&amp;nbsp; Fecha&lt;br&gt;- horaO: Hora&lt;br&gt;- fechaD:&amp;nbsp; Fecha&lt;br style=&quot;border-color: var(--border-color);&quot;&gt;- horaD: Hora&lt;br&gt;- avion: Avion&lt;br&gt;- aLibres: int&lt;br&gt;- aReser: int&lt;br&gt;- piloto: String&lt;br&gt;- co-piloto: String&lt;br&gt;- comandante: String&lt;br&gt;- auxiliar: String" style="text;strokeColor=none;fillColor=none;align=left;verticalAlign=top;spacingLeft=4;spacingRight=4;overflow=hidden;rotatable=0;points=[[0,0.5],[1,0.5]];portConstraint=eastwest;whiteSpace=wrap;html=1;" vertex="1" parent="TtXICu0RF0kHqPmgF_Y--9">
          <mxGeometry y="26" width="160" height="214" as="geometry" />
        </mxCell>
        <mxCell id="TtXICu0RF0kHqPmgF_Y--11" value="" style="line;strokeWidth=1;fillColor=none;align=left;verticalAlign=middle;spacingTop=-1;spacingLeft=3;spacingRight=3;rotatable=0;labelPosition=right;points=[];portConstraint=eastwest;strokeColor=inherit;" vertex="1" parent="TtXICu0RF0kHqPmgF_Y--9">
          <mxGeometry y="240" width="160" height="8" as="geometry" />
        </mxCell>
        <mxCell id="TtXICu0RF0kHqPmgF_Y--12" value="+ checkIn(): int" style="text;strokeColor=none;fillColor=none;align=left;verticalAlign=top;spacingLeft=4;spacingRight=4;overflow=hidden;rotatable=0;points=[[0,0.5],[1,0.5]];portConstraint=eastwest;whiteSpace=wrap;html=1;" vertex="1" parent="TtXICu0RF0kHqPmgF_Y--9">
          <mxGeometry y="248" width="160" height="26" as="geometry" />
        </mxCell>
        <mxCell id="TtXICu0RF0kHqPmgF_Y--13" value="Avion" style="swimlane;fontStyle=1;align=center;verticalAlign=top;childLayout=stackLayout;horizontal=1;startSize=26;horizontalStack=0;resizeParent=1;resizeParentMax=0;resizeLast=0;collapsible=1;marginBottom=0;whiteSpace=wrap;html=1;" vertex="1" parent="1">
          <mxGeometry x="360" y="670" width="160" height="154" as="geometry" />
        </mxCell>
        <mxCell id="TtXICu0RF0kHqPmgF_Y--14" value="- Pclase: PClase&lt;br&gt;- claseEj: ClaseEj&lt;br&gt;- claseEc: ClaseEc&lt;br&gt;- filas: int&lt;br&gt;- columnas: char&lt;br&gt;- carga: int" style="text;strokeColor=none;fillColor=none;align=left;verticalAlign=top;spacingLeft=4;spacingRight=4;overflow=hidden;rotatable=0;points=[[0,0.5],[1,0.5]];portConstraint=eastwest;whiteSpace=wrap;html=1;" vertex="1" parent="TtXICu0RF0kHqPmgF_Y--13">
          <mxGeometry y="26" width="160" height="94" as="geometry" />
        </mxCell>
        <mxCell id="TtXICu0RF0kHqPmgF_Y--15" value="" style="line;strokeWidth=1;fillColor=none;align=left;verticalAlign=middle;spacingTop=-1;spacingLeft=3;spacingRight=3;rotatable=0;labelPosition=right;points=[];portConstraint=eastwest;strokeColor=inherit;" vertex="1" parent="TtXICu0RF0kHqPmgF_Y--13">
          <mxGeometry y="120" width="160" height="8" as="geometry" />
        </mxCell>
        <mxCell id="TtXICu0RF0kHqPmgF_Y--16" value="+ method(type): type" style="text;strokeColor=none;fillColor=none;align=left;verticalAlign=top;spacingLeft=4;spacingRight=4;overflow=hidden;rotatable=0;points=[[0,0.5],[1,0.5]];portConstraint=eastwest;whiteSpace=wrap;html=1;" vertex="1" parent="TtXICu0RF0kHqPmgF_Y--13">
          <mxGeometry y="128" width="160" height="26" as="geometry" />
        </mxCell>
        <mxCell id="TtXICu0RF0kHqPmgF_Y--17" value="SAA" style="swimlane;fontStyle=1;align=center;verticalAlign=top;childLayout=stackLayout;horizontal=1;startSize=26;horizontalStack=0;resizeParent=1;resizeParentMax=0;resizeLast=0;collapsible=1;marginBottom=0;whiteSpace=wrap;html=1;" vertex="1" parent="1">
          <mxGeometry x="319" y="50" width="190" height="300" as="geometry" />
        </mxCell>
        <mxCell id="TtXICu0RF0kHqPmgF_Y--18" value="- aeropuertos: List&amp;lt;Aeropuerto&amp;gt;&lt;br&gt;- aerolineas: List&amp;lt;Aerolineas&amp;gt;&lt;br&gt;- vuelos: List&amp;lt;Vuelo&amp;gt;" style="text;strokeColor=none;fillColor=none;align=left;verticalAlign=top;spacingLeft=4;spacingRight=4;overflow=hidden;rotatable=0;points=[[0,0.5],[1,0.5]];portConstraint=eastwest;whiteSpace=wrap;html=1;" vertex="1" parent="TtXICu0RF0kHqPmgF_Y--17">
          <mxGeometry y="26" width="190" height="54" as="geometry" />
        </mxCell>
        <mxCell id="TtXICu0RF0kHqPmgF_Y--19" value="" style="line;strokeWidth=1;fillColor=none;align=left;verticalAlign=middle;spacingTop=-1;spacingLeft=3;spacingRight=3;rotatable=0;labelPosition=right;points=[];portConstraint=eastwest;strokeColor=inherit;" vertex="1" parent="TtXICu0RF0kHqPmgF_Y--17">
          <mxGeometry y="80" width="190" height="8" as="geometry" />
        </mxCell>
        <mxCell id="TtXICu0RF0kHqPmgF_Y--20" value="+ crearA(): aerolineas&lt;br&gt;+ crearAL(): aerolineas&lt;br&gt;+ crearV(): vuelos&lt;br&gt;+ admin(): void&lt;br&gt;+ encV(): Vuelo&lt;br&gt;+ reserva(): void&lt;br&gt;- reservaB(): void&lt;br&gt;+ reporteG(): String&lt;br&gt;+ reporteEsp(): String&lt;br&gt;+ cambiarA(): void&lt;br&gt;+ registrarI(): String&lt;br&gt;+ recuperarV(piloto): String&lt;br&gt;+ denunciar(): void&lt;br&gt;+ estadisticaP(): List&amp;lt;String&amp;gt;" style="text;strokeColor=none;fillColor=none;align=left;verticalAlign=top;spacingLeft=4;spacingRight=4;overflow=hidden;rotatable=0;points=[[0,0.5],[1,0.5]];portConstraint=eastwest;whiteSpace=wrap;html=1;" vertex="1" parent="TtXICu0RF0kHqPmgF_Y--17">
          <mxGeometry y="88" width="190" height="212" as="geometry" />
        </mxCell>
        <mxCell id="TtXICu0RF0kHqPmgF_Y--21" value="PClase" style="swimlane;fontStyle=0;childLayout=stackLayout;horizontal=1;startSize=26;fillColor=none;horizontalStack=0;resizeParent=1;resizeParentMax=0;resizeLast=0;collapsible=1;marginBottom=0;whiteSpace=wrap;html=1;" vertex="1" parent="1">
          <mxGeometry x="690" y="950" width="140" height="78" as="geometry" />
        </mxCell>
        <mxCell id="TtXICu0RF0kHqPmgF_Y--22" value="- existe: boolean" style="text;strokeColor=none;fillColor=none;align=left;verticalAlign=top;spacingLeft=4;spacingRight=4;overflow=hidden;rotatable=0;points=[[0,0.5],[1,0.5]];portConstraint=eastwest;whiteSpace=wrap;html=1;" vertex="1" parent="TtXICu0RF0kHqPmgF_Y--21">
          <mxGeometry y="26" width="140" height="26" as="geometry" />
        </mxCell>
        <mxCell id="TtXICu0RF0kHqPmgF_Y--23" value="- aDisponibles: int" style="text;strokeColor=none;fillColor=none;align=left;verticalAlign=top;spacingLeft=4;spacingRight=4;overflow=hidden;rotatable=0;points=[[0,0.5],[1,0.5]];portConstraint=eastwest;whiteSpace=wrap;html=1;" vertex="1" parent="TtXICu0RF0kHqPmgF_Y--21">
          <mxGeometry y="52" width="140" height="26" as="geometry" />
        </mxCell>
        <mxCell id="TtXICu0RF0kHqPmgF_Y--25" value="ClaseEj" style="swimlane;fontStyle=0;childLayout=stackLayout;horizontal=1;startSize=26;fillColor=none;horizontalStack=0;resizeParent=1;resizeParentMax=0;resizeLast=0;collapsible=1;marginBottom=0;whiteSpace=wrap;html=1;" vertex="1" parent="1">
          <mxGeometry x="530" y="950" width="140" height="78" as="geometry" />
        </mxCell>
        <mxCell id="TtXICu0RF0kHqPmgF_Y--26" value="- existe: boolean" style="text;strokeColor=none;fillColor=none;align=left;verticalAlign=top;spacingLeft=4;spacingRight=4;overflow=hidden;rotatable=0;points=[[0,0.5],[1,0.5]];portConstraint=eastwest;whiteSpace=wrap;html=1;" vertex="1" parent="TtXICu0RF0kHqPmgF_Y--25">
          <mxGeometry y="26" width="140" height="26" as="geometry" />
        </mxCell>
        <mxCell id="TtXICu0RF0kHqPmgF_Y--27" value="- aDisponibles: int" style="text;strokeColor=none;fillColor=none;align=left;verticalAlign=top;spacingLeft=4;spacingRight=4;overflow=hidden;rotatable=0;points=[[0,0.5],[1,0.5]];portConstraint=eastwest;whiteSpace=wrap;html=1;" vertex="1" parent="TtXICu0RF0kHqPmgF_Y--25">
          <mxGeometry y="52" width="140" height="26" as="geometry" />
        </mxCell>
        <mxCell id="TtXICu0RF0kHqPmgF_Y--28" value="ClaseEc" style="swimlane;fontStyle=0;childLayout=stackLayout;horizontal=1;startSize=26;fillColor=none;horizontalStack=0;resizeParent=1;resizeParentMax=0;resizeLast=0;collapsible=1;marginBottom=0;whiteSpace=wrap;html=1;" vertex="1" parent="1">
          <mxGeometry x="190" y="950" width="140" height="78" as="geometry" />
        </mxCell>
        <mxCell id="TtXICu0RF0kHqPmgF_Y--29" value="- existe: boolean" style="text;strokeColor=none;fillColor=none;align=left;verticalAlign=top;spacingLeft=4;spacingRight=4;overflow=hidden;rotatable=0;points=[[0,0.5],[1,0.5]];portConstraint=eastwest;whiteSpace=wrap;html=1;" vertex="1" parent="TtXICu0RF0kHqPmgF_Y--28">
          <mxGeometry y="26" width="140" height="26" as="geometry" />
        </mxCell>
        <mxCell id="TtXICu0RF0kHqPmgF_Y--30" value="- aDisponibles: int" style="text;strokeColor=none;fillColor=none;align=left;verticalAlign=top;spacingLeft=4;spacingRight=4;overflow=hidden;rotatable=0;points=[[0,0.5],[1,0.5]];portConstraint=eastwest;whiteSpace=wrap;html=1;" vertex="1" parent="TtXICu0RF0kHqPmgF_Y--28">
          <mxGeometry y="52" width="140" height="26" as="geometry" />
        </mxCell>
        <mxCell id="TtXICu0RF0kHqPmgF_Y--31" value="Turista" style="swimlane;fontStyle=0;childLayout=stackLayout;horizontal=1;startSize=26;fillColor=none;horizontalStack=0;resizeParent=1;resizeParentMax=0;resizeLast=0;collapsible=1;marginBottom=0;whiteSpace=wrap;html=1;" vertex="1" parent="1">
          <mxGeometry x="20" y="950" width="140" height="78" as="geometry" />
        </mxCell>
        <mxCell id="TtXICu0RF0kHqPmgF_Y--32" value="- existe: boolean" style="text;strokeColor=none;fillColor=none;align=left;verticalAlign=top;spacingLeft=4;spacingRight=4;overflow=hidden;rotatable=0;points=[[0,0.5],[1,0.5]];portConstraint=eastwest;whiteSpace=wrap;html=1;" vertex="1" parent="TtXICu0RF0kHqPmgF_Y--31">
          <mxGeometry y="26" width="140" height="26" as="geometry" />
        </mxCell>
        <mxCell id="TtXICu0RF0kHqPmgF_Y--33" value="- aDisponibles: int" style="text;strokeColor=none;fillColor=none;align=left;verticalAlign=top;spacingLeft=4;spacingRight=4;overflow=hidden;rotatable=0;points=[[0,0.5],[1,0.5]];portConstraint=eastwest;whiteSpace=wrap;html=1;" vertex="1" parent="TtXICu0RF0kHqPmgF_Y--31">
          <mxGeometry y="52" width="140" height="26" as="geometry" />
        </mxCell>
        <mxCell id="TtXICu0RF0kHqPmgF_Y--34" value="Transito" style="swimlane;fontStyle=0;childLayout=stackLayout;horizontal=1;startSize=26;fillColor=none;horizontalStack=0;resizeParent=1;resizeParentMax=0;resizeLast=0;collapsible=1;marginBottom=0;whiteSpace=wrap;html=1;" vertex="1" parent="1">
          <mxGeometry x="360" y="950" width="140" height="78" as="geometry" />
        </mxCell>
        <mxCell id="TtXICu0RF0kHqPmgF_Y--35" value="- existe: boolean" style="text;strokeColor=none;fillColor=none;align=left;verticalAlign=top;spacingLeft=4;spacingRight=4;overflow=hidden;rotatable=0;points=[[0,0.5],[1,0.5]];portConstraint=eastwest;whiteSpace=wrap;html=1;" vertex="1" parent="TtXICu0RF0kHqPmgF_Y--34">
          <mxGeometry y="26" width="140" height="26" as="geometry" />
        </mxCell>
        <mxCell id="TtXICu0RF0kHqPmgF_Y--36" value="- aDisponibles: int" style="text;strokeColor=none;fillColor=none;align=left;verticalAlign=top;spacingLeft=4;spacingRight=4;overflow=hidden;rotatable=0;points=[[0,0.5],[1,0.5]];portConstraint=eastwest;whiteSpace=wrap;html=1;" vertex="1" parent="TtXICu0RF0kHqPmgF_Y--34">
          <mxGeometry y="52" width="140" height="26" as="geometry" />
        </mxCell>
        <mxCell id="TtXICu0RF0kHqPmgF_Y--38" value="" style="endArrow=diamondThin;endFill=0;endSize=24;html=1;rounded=0;entryX=0;entryY=0.5;entryDx=0;entryDy=0;exitX=0.5;exitY=0;exitDx=0;exitDy=0;" edge="1" parent="1" source="TtXICu0RF0kHqPmgF_Y--31" target="TtXICu0RF0kHqPmgF_Y--16">
          <mxGeometry width="160" relative="1" as="geometry">
            <mxPoint x="200" y="850" as="sourcePoint" />
            <mxPoint x="360" y="850" as="targetPoint" />
          </mxGeometry>
        </mxCell>
        <mxCell id="TtXICu0RF0kHqPmgF_Y--39" value="" style="endArrow=diamondThin;endFill=0;endSize=24;html=1;rounded=0;entryX=0;entryY=0.5;entryDx=0;entryDy=0;exitX=0.5;exitY=0;exitDx=0;exitDy=0;" edge="1" parent="1" source="TtXICu0RF0kHqPmgF_Y--28" target="TtXICu0RF0kHqPmgF_Y--16">
          <mxGeometry width="160" relative="1" as="geometry">
            <mxPoint x="330" y="760" as="sourcePoint" />
            <mxPoint x="490" y="760" as="targetPoint" />
          </mxGeometry>
        </mxCell>
        <mxCell id="TtXICu0RF0kHqPmgF_Y--40" value="" style="endArrow=diamondThin;endFill=0;endSize=24;html=1;rounded=0;entryX=0.497;entryY=1.015;entryDx=0;entryDy=0;entryPerimeter=0;exitX=0.5;exitY=0;exitDx=0;exitDy=0;" edge="1" parent="1" source="TtXICu0RF0kHqPmgF_Y--34" target="TtXICu0RF0kHqPmgF_Y--16">
          <mxGeometry width="160" relative="1" as="geometry">
            <mxPoint x="330" y="760" as="sourcePoint" />
            <mxPoint x="490" y="760" as="targetPoint" />
          </mxGeometry>
        </mxCell>
        <mxCell id="TtXICu0RF0kHqPmgF_Y--41" value="" style="endArrow=diamondThin;endFill=0;endSize=24;html=1;rounded=0;entryX=1;entryY=0.5;entryDx=0;entryDy=0;exitX=0.5;exitY=0;exitDx=0;exitDy=0;" edge="1" parent="1" source="TtXICu0RF0kHqPmgF_Y--25" target="TtXICu0RF0kHqPmgF_Y--16">
          <mxGeometry width="160" relative="1" as="geometry">
            <mxPoint x="330" y="860" as="sourcePoint" />
            <mxPoint x="490" y="860" as="targetPoint" />
          </mxGeometry>
        </mxCell>
        <mxCell id="TtXICu0RF0kHqPmgF_Y--42" value="" style="endArrow=diamondThin;endFill=0;endSize=24;html=1;rounded=0;exitX=0.5;exitY=0;exitDx=0;exitDy=0;" edge="1" parent="1" source="TtXICu0RF0kHqPmgF_Y--21">
          <mxGeometry width="160" relative="1" as="geometry">
            <mxPoint x="330" y="860" as="sourcePoint" />
            <mxPoint x="520" y="820" as="targetPoint" />
          </mxGeometry>
        </mxCell>
        <mxCell id="TtXICu0RF0kHqPmgF_Y--43" value="" style="endArrow=diamondThin;endFill=1;endSize=24;html=1;rounded=0;entryX=1;entryY=0.5;entryDx=0;entryDy=0;exitX=0;exitY=0;exitDx=0;exitDy=0;" edge="1" parent="1" source="TtXICu0RF0kHqPmgF_Y--13" target="TtXICu0RF0kHqPmgF_Y--10">
          <mxGeometry width="160" relative="1" as="geometry">
            <mxPoint x="330" y="660" as="sourcePoint" />
            <mxPoint x="490" y="660" as="targetPoint" />
          </mxGeometry>
        </mxCell>
        <mxCell id="TtXICu0RF0kHqPmgF_Y--45" style="edgeStyle=orthogonalEdgeStyle;rounded=0;orthogonalLoop=1;jettySize=auto;html=1;exitX=1;exitY=0.5;exitDx=0;exitDy=0;entryX=0;entryY=0.5;entryDx=0;entryDy=0;" edge="1" parent="1" source="TtXICu0RF0kHqPmgF_Y--6" target="TtXICu0RF0kHqPmgF_Y--2">
          <mxGeometry relative="1" as="geometry" />
        </mxCell>
      </root>
    </mxGraphModel>
  </diagram>
</mxfile>
